<svg xmlns="http://www.w3.org/2000/svg" width="24" height="24" viewBox="0 0 64 64" id="crop-tool"><path d="M53.68 55.22H21.96c-2.42 0-4.39 1.97-4.39 4.39S19.54 64 21.96 64h31.72c2.42 0 4.39-1.97 4.39-4.39s-1.97-4.39-4.39-4.39zM40.72 27.2c0-1.26-.54-2.47-1.49-3.3l-26-22.81A4.45 4.45 0 0 0 10.32 0c-1.26 0-2.47.54-3.3 1.49-.77.89-1.15 2.02-1.08 3.18.08 1.17.6 2.24 1.49 3.01L29.67 27.2 7.43 46.71c-.88.77-1.41 1.85-1.49 3.01-.08 1.17.31 2.3 1.08 3.18a4.386 4.386 0 0 0 6.19.4l26-22.81c.96-.82 1.51-2.03 1.51-3.29z"></path></svg>
